<?xml version="1.0" standalone="no"?>
<!DOCTYPE svg PUBLIC "-//W3C//DTD SVG 20010904//EN" "http://www.w3.org/TR/2001/REC-SVG-20010904/DTD/svg10.dtd">
<!-- Created using Karbon, part of Calligra: http://www.calligra.org/karbon -->
<svg xmlns="http://www.w3.org/2000/svg" xmlns:xlink="http://www.w3.org/1999/xlink" width="595.277pt" height="368.505pt">
<defs/>
<g id="g10">
  <g id="g12" transform="translate(222.964, 224.681)" fill="none">
   <path id="path14" transform="matrix(0.125 0 0 -0.125 -201.066 194.579)" fill="#211d1d" d="M5401.37 1304.29C5449.16 1281.97 5470.56 1257.02 5470.56 1242.21C5470.56 1227.35 5449.16 1202.38 5401.37 1180.12L2965.15 43.5758C2840.56 -14.5253 2630.02 -14.5253 2505.43 43.5758L69.144 1180.12C21.4182 1202.38 0 1227.35 0 1242.21C0 1257.02 21.4182 1281.97 69.144 1304.24L2505.43 2441.05C2630.05 2499.2 2840.56 2499.2 2965.15 2441.05L5401.37 1304.29"/>
   <path id="path16" transform="matrix(0.125 0 0 -0.125 -216.984 210.512)" fill="#ec1d27" d="M3146.3 2683.96C2987.19 2758.18 2738 2758.18 2578.94 2683.96L142.653 1547.15C18.5084 1489.24 0 1411.1 0 1369.62C0 1328.2 18.5322 1250.04 142.677 1192.15L2578.94 55.6503C2738 -18.5501 2987.19 -18.5501 3146.3 55.6503L5582.51 1192.15C5706.68 1250.04 5725.21 1328.2 5725.21 1369.62C5725.21 1411.08 5706.68 1489.24 5582.59 1547.15ZM5528.71 1431.76C5576.5 1409.43 5597.9 1384.48 5597.9 1369.67C5597.9 1354.81 5576.5 1329.84 5528.71 1307.59L3092.49 171.041C2967.9 112.94 2757.36 112.94 2632.77 171.041L196.484 1307.59C148.759 1329.84 127.34 1354.81 127.34 1369.67C127.34 1384.48 148.759 1409.43 196.484 1431.71L2632.77 2568.52C2757.39 2626.67 2967.9 2626.67 3092.49 2568.52L5528.71 1431.76"/>
   <path id="path18" transform="matrix(0.125 0 0 -0.125 56.1217 37.8001)" fill="#211d1d" d="M577.766 714.027L576.144 714.623L574.499 715.148C551.077 722.136 527.417 726.763 504.138 728.934C482.028 730.89 444.797 731.867 390.154 731.867L102.893 731.867L102.893 499.893L390.154 499.893C451.213 499.893 465.166 488.635 465.714 488.182C465.714 488.182 467.145 486.822 468.887 483.149L308.918 483.149C233.334 483.149 179.407 476.972 144.108 464.355C100.15 448.78 64.4454 419.11 38.0662 376.345C12.808 335.321 0 288.263 0 236.459C0 150.714 34.2262 82.3813 99.0293 38.8056C124.121 22.0383 153.123 11.1146 185.346 6.27281C213.156 2.02733 260.286 0 329.358 0L746.297 0L746.297 407.136C752.999 605.076 658.406 683.45 577.766 714.027"/>
   <path id="path20" transform="matrix(0.125 0 0 -0.125 143.47 37.8001)" fill="#211d1d" d="M621.891 731.867L382.355 731.867C319.341 731.867 268.801 726.692 227.872 715.983C184.273 704.582 146.183 684.953 114.723 657.619C38.7101 592.482 0 494.789 0 367.544C0 262.194 31.5787 173.54 93.9013 103.966C128.7 65.2324 169.103 37.6607 214.11 22.0622C256.923 7.22685 311.923 0 382.355 0L669.688 0L669.688 231.975L432.8 231.975C391.943 231.975 369.643 235.123 358.194 237.77C344.074 240.99 331.362 246.905 319.198 255.85C289.36 277.268 275.026 313.116 275.026 365.588C275.026 413.719 284.113 448.565 302.073 469.173C319.675 489.231 357.622 499.893 411.716 499.893L669.688 499.893L669.688 731.867L621.891 731.867"/>
   <path id="path22" transform="matrix(0.125 0 0 -0.125 221.206 37.8001)" fill="#211d1d" d="M645.789 731.867L423.379 731.867L423.379 231.975L306.414 231.975C287.953 231.975 282.372 238.128 279.915 240.704C273.499 247.764 270.279 259.403 270.279 275.479L270.279 731.867L0 731.867L0 293.343C0 190.617 27.7387 113.268 82.5244 63.5867C108.999 39.0441 139.958 21.7998 174.136 12.5456C205.309 4.12622 247.096 0 301.93 0L693.587 0L693.587 731.867L645.789 731.867"/>
   <path id="path24" transform="matrix(0.125 0 0 -0.125 301.93 35.409)" fill="#211d1d" d="M0 968.708L0 0L270.279 0L270.279 968.708L0 968.708"/>
   <path id="path26" transform="matrix(0.125 0 0 -0.125 329.74 37.8001)" fill="#211d1d" d="M577.742 714.027L576.144 714.623L574.523 715.148C551.053 722.136 527.441 726.763 504.091 728.934C482.005 730.89 444.773 731.867 390.131 731.867L76.514 731.867L76.514 499.893L390.131 499.893C451.189 499.893 465.166 488.635 465.738 488.182C465.738 488.182 467.122 486.822 468.887 483.149L308.87 483.149C233.334 483.149 179.455 476.972 144.084 464.355C100.222 448.78 64.4454 419.11 38.09 376.345C12.808 335.321 0 288.263 0 236.459C0 150.714 34.25 82.3813 99.0293 38.8056C124.121 22.0383 153.099 11.1146 185.322 6.27281C213.132 2.02733 260.238 0 329.334 0L746.297 0L746.297 407.136C752.999 605.076 658.383 683.45 577.742 714.027"/>
   <path id="path28" transform="matrix(0.125 0 0 -0.125 335.715 31.8224)" fill="#ffffff" fill-rule="evenodd" d="M476.066 387.459C476.066 431.655 466.931 461.421 448.828 476.829C430.725 492.213 395.163 499.893 342.333 499.893L76.5855 499.893L76.5855 636.225L342.333 636.225C395.163 636.225 431.703 635.319 451.976 633.458C472.154 631.574 492.499 627.591 513.035 621.485C609.464 584.898 655.306 497.508 650.631 359.315L650.631 0L281.537 0C215.565 0 169.938 1.93193 144.656 5.77194C119.279 9.56425 97.0735 17.8882 77.9212 30.6724C25.926 65.6618 0 118.277 0 188.637C0 231.665 10.3513 269.898 30.9586 303.361C51.5658 336.847 78.756 359.506 112.434 371.503C142.128 382.164 191.738 387.459 261.073 387.459L476.066 387.459"/>
   <path id="path30" transform="matrix(0.125 0 0 -0.125 307.905 29.4254)" fill="#ffffff" fill-rule="evenodd" d="M0 0L174.69 0L174.69 872.994L0 872.994Z"/>
   <path id="path32" transform="matrix(0.125 0 0 -0.125 62.1023 31.8224)" fill="#ffffff" fill-rule="evenodd" d="M475.969 387.459C475.969 431.655 466.882 461.421 448.779 476.829C430.653 492.213 395.162 499.893 342.309 499.893L102.869 499.893L102.869 636.225L342.309 636.225C395.115 636.225 431.631 635.319 451.856 633.458C472.153 631.574 492.451 627.591 512.938 621.485C609.392 584.898 655.281 497.508 650.606 359.315L650.606 0L281.513 0C215.541 0 169.914 1.93193 144.584 5.77194C119.255 9.56425 97.0018 17.8882 77.8972 30.6724C25.9021 65.6618 0 118.277 0 188.637C0 231.665 10.3275 269.898 30.9347 303.361C51.5419 336.847 78.6843 359.506 112.338 371.503C142.128 382.164 191.714 387.459 261.072 387.459L475.969 387.459"/>
   <path id="path34" transform="matrix(0.125 0 0 -0.125 149.454 31.8224)" fill="#ffffff" fill-rule="evenodd" d="M574.022 636.225L574.022 499.893L363.847 499.893C294.25 499.893 245.737 484.127 218.141 452.763C192.287 423.069 179.359 378.062 179.359 317.767C179.359 249.457 200.539 200.014 243.018 169.461C260.357 156.701 279.295 147.995 299.616 143.321C319.961 138.67 348.391 136.332 384.931 136.332L574.022 136.332L574.022 0L334.486 0C270.136 0 219.334 6.46362 181.888 19.4624C144.418 32.4135 111.026 55.3104 81.6896 88.034C27.1663 148.878 0 226.083 0 319.722C0 432.872 32.6997 517.543 98.2422 573.712C124.168 596.251 155.461 612.279 192.072 621.867C228.707 631.431 276.147 636.225 334.486 636.225L574.022 636.225"/>
   <path id="path36" transform="matrix(0.125 0 0 -0.125 227.181 31.8224)" fill="#ffffff" fill-rule="evenodd" d="M423.379 136.332L423.379 636.225L597.992 636.225L597.992 0L254.132 0C204.045 0 165.597 3.6015 138.837 10.876C112.076 18.1267 88.1055 31.5549 66.8782 51.1842C22.3007 91.6355 0 156.415 0 245.522L0 636.225L174.613 636.225L174.613 227.658C174.613 199.084 182.031 176.76 196.914 160.589C211.725 144.394 232.261 136.332 258.616 136.332L423.379 136.332"/>
   <path id="path38" transform="matrix(0.125 0 0 -0.125 358.147 14.7809)" fill="#211d1d" fill-rule="evenodd" d="M296.611 114.795L64.6362 114.795C44.7922 114.795 29.0744 109.5 17.4589 98.91C5.79579 88.344 0 74.2004 0 56.503C0 35.7288 7.05989 21.132 21.2274 12.6887C35.3472 4.22162 59.5321 0 93.7582 0L296.611 0L296.611 114.795"/>
   <path id="path40" transform="matrix(0.125 0 0 -0.125 84.5282 14.7809)" fill="#211d1d" fill-rule="evenodd" d="M296.563 114.795L64.6362 114.795C44.7683 114.795 29.0505 109.5 17.4112 98.91C5.81964 88.344 0 74.2004 0 56.503C0 35.7288 7.05989 21.132 21.2274 12.6887C35.371 4.22162 59.5798 0 93.8298 0L296.563 0L296.563 114.795"/>
   <path id="path42" transform="matrix(0.125 0 0 -0.125 -29.1736 151.703)" fill="#211d1d" d="M634.565 959.048L412.107 959.048L412.107 459.155L315.319 459.155C294.426 459.155 284.313 463.568 282.667 466.525C280.711 469.984 271.004 491.259 271.004 573.521L271.004 959.048L0.748586 959.048L0.748586 556.253L0.820139 558.685C-4.97565 446.276 19.9725 360.603 74.8536 304.148C112.419 265.485 163.341 241.539 226.379 231.927C141.803 231.927 48.546 231.927 48.546 231.927L0.748586 231.927L0.748586 0L361.423 0C469.301 0 547.556 22.7538 600.696 69.4541C654.933 117.228 682.386 190.689 682.386 287.834L682.386 959.048L634.565 959.048"/>
   <path id="path44" transform="matrix(0.125 0 0 -0.125 50.147 123.306)" fill="#211d1d" d="M629.809 426.122C583.419 460.753 521.335 478.332 445.393 478.332L342.047 478.332C299.902 478.332 284.495 481.217 279.987 482.386C275.789 485.391 275.05 487.419 275.05 491.95C275.05 494.526 275.264 496.291 275.407 497.675C280.988 498.486 294.965 499.845 326.067 499.845L684.046 499.845L684.046 731.867L262.242 731.867C181.434 731.867 124.335 717.652 87.557 688.339C29.3844 641.448 0 577.933 0 499.392C0 458.869 8.3717 420.493 24.9481 385.36C41.9777 349.274 65.781 319.961 95.6902 298.28C120.257 280.822 146.97 268.801 175.352 262.337C201.469 256.398 236.149 253.536 281.418 253.536L387.316 253.536C426.193 253.536 439.049 250.626 441.935 249.791C442.794 249.338 443.247 248.98 443.247 248.98C443.604 248.575 444.869 245.522 444.869 238.605C444.869 236.626 444.749 235.218 444.582 234.169C443.771 233.978 442.937 233.764 441.506 233.62C433.969 232.929 414.244 232.022 368.832 232.022L9.56425 232.022L9.56425 0L419.205 0C489.017 0 539.056 5.67653 572.114 17.4112C609.655 30.7678 641.496 57.1231 666.778 95.7617C697.26 142.223 712.763 193.813 712.763 249.052C712.763 325.614 684.857 385.17 629.809 426.122"/>
   <path id="path46" transform="matrix(0.125 0 0 -0.125 129.678 123.306)" fill="#211d1d" d="M495.075 731.867L380.256 731.867L380.256 968.636L110.001 968.636L110.001 731.867L0 731.867L0 499.845L110.001 499.845L110.001 286.307C110.001 187.469 129.63 117.061 170.01 71.0759C211.439 23.9225 277.959 0 367.615 0L542.586 0L542.586 231.736L425.764 231.736C414.22 231.736 394.376 233.167 386.839 242.183C385.217 246.762 380.256 264.651 380.256 317.409L380.256 499.845L542.944 499.845L542.944 731.867L495.075 731.867"/>
   <path id="path48" transform="matrix(0.125 0 0 -0.125 189.264 123.306)" fill="#211d1d" d="M609.965 731.867L363.99 731.867C293.129 731.867 236.53 722.47 191.118 703.151C143.941 683.211 103.275 649.582 70.2412 603.406C23.684 538.341 0 461.159 0 373.888C0 240.633 45.1499 138.169 133.971 69.3348C167.434 43.8381 203.139 25.7114 240.442 15.1454C276.648 4.961 321.225 0 376.774 0L657.81 0L657.81 232.022L395.998 232.022C340.711 232.022 318.148 242.517 309.633 248.79C308.87 249.386 308.226 250.435 307.391 251.127L657.81 251.127L657.81 483.149L303.265 483.149C304.672 484.986 305.865 486.178 306.628 486.822C310.325 489.899 326.329 499.845 376.774 499.845L657.81 499.845L657.81 731.867L609.965 731.867"/>
   <path id="path50" transform="matrix(0.125 0 0 -0.125 265.509 123.306)" fill="#211d1d" d="M936.962 657.548C910.344 686.384 877.215 706.395 838.219 717.295C803.349 727.073 755.337 731.867 691.631 731.867L0 731.867L0 0L270.279 0L270.279 499.845L363.561 499.845L363.561 0L633.84 0L633.84 499.845L679.538 499.845C703.222 499.845 720.276 495.48 728.791 487.204C732.082 483.746 733.275 480.359 733.752 478.188C734.443 475.255 736.685 462.661 736.685 425.287L736.685 0L1006.96 0L1006.96 452.716C1006.96 537.935 983.424 606.817 936.962 657.548"/>
   <path id="path52" transform="matrix(0.125 0 0 -0.125 385.03 123.306)" fill="#211d1d" d="M629.809 426.122C583.467 460.753 521.359 478.332 445.393 478.332L341.975 478.332C299.926 478.332 284.471 481.217 280.011 482.386C275.813 485.391 275.05 487.419 275.05 491.95C275.05 494.526 275.24 496.291 275.455 497.675C281.06 498.486 295.037 499.845 326.043 499.845L684.094 499.845L684.094 731.867L262.242 731.867C181.482 731.867 124.311 717.652 87.557 688.339C29.4321 641.448 0 577.933 0 499.392C0 458.869 8.39555 420.493 24.9481 385.36C42.0016 349.274 65.8287 319.961 95.6663 298.28C120.257 280.822 146.97 268.801 175.4 262.337C201.469 256.398 236.125 253.536 281.394 253.536L387.34 253.536C426.241 253.536 439.12 250.626 441.911 249.791C442.817 249.338 443.294 248.98 443.294 248.98C443.581 248.575 444.916 245.522 444.916 238.605C444.916 236.626 444.773 235.218 444.63 234.169C443.724 233.978 442.96 233.764 441.482 233.62C433.945 232.929 414.292 232.022 368.808 232.022L9.51654 232.022L9.51654 0L419.276 0C488.993 0 539.032 5.67653 572.09 17.4112C609.679 30.7678 641.472 57.1231 666.754 95.7617C697.307 142.223 712.739 193.813 712.739 249.052C712.739 325.614 684.857 385.17 629.809 426.122"/>
   <path id="path54" transform="matrix(0.125 0 0 -0.125 135.653 117.328)" fill="#ffffff" fill-rule="evenodd" d="M110.048 636.225L110.048 873.018L284.59 873.018L284.59 636.225L447.278 636.225L447.278 499.893L284.59 499.893L284.59 269.588C284.59 215.47 289.551 181.387 299.354 167.362C314.237 146.493 340.354 136.07 377.967 136.07L446.92 136.07L446.92 0L319.818 0C244.139 0 190.259 18.2699 158.132 54.8096C126.052 91.3493 110.048 152.599 110.048 238.486L110.048 499.893L0 499.893L0 636.225L110.048 636.225"/>
   <path id="path56" transform="matrix(0.125 0 0 -0.125 56.1247 117.328)" fill="#ffffff" fill-rule="evenodd" d="M588.428 636.225L588.428 499.893L278.246 499.893C242.517 499.893 219.668 498.152 209.793 494.789C189.496 488.039 179.383 471.129 179.383 444.129C179.383 421.733 189.091 404.608 208.41 392.85C218.737 386.052 247.359 382.713 294.226 382.713L397.572 382.713C463.353 382.713 515.229 368.426 553.462 339.9C595.869 308.369 617.073 262.17 617.073 201.231C617.073 155.27 604.36 112.839 578.935 74.105C559.401 44.2913 535.836 24.495 508.288 14.6684C480.669 4.88945 435.042 0 371.384 0L9.56425 0L9.56425 136.332L321.01 136.332C359.1 136.332 385.17 136.952 399.003 138.216C429.556 141.699 444.892 159.181 444.892 190.784C444.892 217.235 434.851 235.385 414.792 245.188C403.893 250.745 378.825 253.536 339.495 253.536L233.597 253.536C192.31 253.536 160.517 256.088 138.145 261.168C115.82 266.225 95.07 275.598 75.9654 289.169C52.5437 306.151 34.0354 329.12 20.4164 357.979C6.77368 386.839 0 418.036 0 451.571C0 515.229 23.1593 565.722 69.5733 603.096C97.1928 625.134 145.491 636.225 214.42 636.225L588.428 636.225"/>
   <path id="path58" transform="matrix(0.125 0 0 -0.125 391.013 117.328)" fill="#ffffff" fill-rule="evenodd" d="M588.356 636.225L588.356 499.893L278.174 499.893C242.398 499.893 219.62 498.152 209.698 494.789C189.52 488.039 179.383 471.129 179.383 444.129C179.383 421.733 189.019 404.608 208.386 392.85C218.714 386.052 247.287 382.713 294.106 382.713L397.524 382.713C463.282 382.713 515.205 368.426 553.414 339.9C595.845 308.369 617.073 262.17 617.073 201.231C617.073 155.27 604.36 112.839 578.863 74.105C559.353 44.2913 535.812 24.495 508.217 14.6684C480.693 4.88945 434.994 0 371.408 0L9.51654 0L9.51654 136.332L320.939 136.332C359.1 136.332 385.098 136.952 398.932 138.216C429.532 141.699 444.845 159.181 444.845 190.784C444.845 217.235 434.78 235.385 414.721 245.188C403.821 250.745 378.73 253.536 339.471 253.536L233.525 253.536C192.31 253.536 160.517 256.088 138.145 261.168C115.797 266.225 95.0462 275.598 75.8938 289.169C52.5437 306.151 33.9638 329.12 20.3449 357.979C6.77368 386.839 0 418.036 0 451.571C0 515.229 23.1355 565.722 69.5256 603.096C97.1928 625.134 145.491 636.225 214.373 636.225L588.356 636.225"/>
   <path id="path60" transform="matrix(0.125 0 0 -0.125 195.247 117.328)" fill="#ffffff" fill-rule="evenodd" d="M562.096 387.483L562.096 251.127L192.859 251.127C196.294 209.412 209.769 179.86 233.382 162.449C257.018 145.014 295.227 136.332 348.129 136.332L562.096 136.332L562.096 0L328.905 0C278.317 0 237.222 4.43628 205.572 13.3804C173.921 22.3245 143.798 37.6607 115.439 59.3651C38.4955 118.921 0 207.837 0 326.067C0 403.487 20.4164 470.675 61.2255 527.727C89.2265 566.866 122.856 594.7 161.9 611.301C200.968 627.901 252.391 636.225 316.121 636.225L562.096 636.225L562.096 499.893L328.905 499.893C281.179 499.893 247.645 491.879 228.278 475.899C208.935 459.919 197.128 430.439 192.859 387.483L562.096 387.483"/>
   <path id="path62" transform="matrix(0.125 0 0 -0.125 271.49 117.328)" fill="#ffffff" fill-rule="evenodd" d="M0 636.225L643.786 636.225C702.531 636.225 747.061 631.956 777.518 623.441C807.976 614.902 833.425 599.566 853.818 577.409C892.122 535.622 911.251 478.117 911.251 404.894L911.251 1.08462e-12L736.709 1.08462e-12L736.709 377.466C736.709 408.067 735.254 429.342 732.511 441.196C729.721 453.097 723.639 463.949 714.289 473.728C696.33 491.163 668.782 499.893 631.693 499.893L538.197 499.893L538.197 0L363.584 0L363.584 499.893L174.565 499.893L174.565 0L0 0L0 636.225"/>
   <path id="path64" transform="matrix(0.125 0 0 -0.125 -23.2009 145.726)" fill="#ffffff" fill-rule="evenodd" d="M412.146 363.513L412.146 863.406L586.783 863.406L586.783 240.012C586.783 156.82 564.936 95.9764 521.336 57.5286C477.736 19.2 408.449 0 313.642 0L0.76447 0L0.76447 136.261L313.642 136.261C351.112 136.714 375.678 140.983 387.174 149.093C395.689 153.815 401.389 160.422 404.156 168.913C406.947 177.451 409.594 196.89 412.146 227.181L255.398 227.181C75.8474 222.911 -9.06214 316.622 0.76447 508.431L0.76447 863.406L175.378 863.406L175.378 525.7C175.378 459.68 181.316 416.2 193.266 395.115C205.215 374.031 229.996 363.513 267.538 363.513L412.146 363.513"/>
   <path id="path66" transform="matrix(0.125 0 0 -0.125 474.769 85.5736)" fill="#211d1d" d="M194.815 139.791L242.755 40.6659L288.597 139.791L337.229 139.791L337.229 133.637C330.718 133.566 326.329 132.874 324.159 131.705C322.06 130.56 320.462 128.676 319.412 126.124C318.363 123.572 317.791 118.182 317.791 110.025L317.791 28.812C317.791 19.0092 318.912 12.8795 321.154 10.4467C323.324 8.03778 328.69 6.60672 337.229 6.10585L337.229 0L267.775 0L267.775 6.10585C274.62 6.24896 279.223 6.94064 281.609 8.22859C284.041 9.49269 285.783 11.3531 286.904 13.7859C288.024 16.2425 288.597 21.2274 288.597 28.812L288.597 113.936L235.624 0L229.971 0L175.663 112.314L175.663 28.812C175.663 20.9173 176.163 15.8132 177.141 13.4758C178.119 11.1384 179.646 9.32574 181.745 8.03778C183.915 6.77368 187.206 6.10585 191.738 6.10585L197.892 6.10585L197.892 0L145.968 0L145.968 6.10585C152.336 6.10585 156.653 6.70213 158.895 7.84697C161.066 9.01567 162.664 10.8283 163.713 13.2373C164.763 15.6939 165.335 20.8458 165.335 28.812L165.335 109.571C165.335 118.468 164.834 124.097 163.785 126.434C162.878 128.771 161.28 130.56 158.967 131.824C156.653 132.993 152.336 133.637 145.968 133.637L145.968 139.791ZM3.76846 139.791L129.344 139.791L133.184 104.849L127.531 104.849C126.41 113.197 123.333 119.374 118.516 123.405C113.626 127.388 105.517 129.368 94.116 129.368L81.1888 129.368L81.1888 28.812C81.1888 19.1762 82.3813 13.0942 84.6948 10.5183C87.0561 7.91853 91.9455 6.46362 99.6494 6.10585L99.6494 3.25385e-12L34.5124 3.25385e-12L34.5124 6.10585C42.0731 6.84523 46.8195 8.4194 48.8468 10.8999C50.9457 13.3804 51.9236 19.3431 51.9236 28.812L51.9236 129.368L38.7101 129.368C27.7387 129.368 19.844 127.555 15.2408 123.93C10.6137 120.257 7.41766 113.936 5.65268 104.849L0 104.849L3.76846 139.791"/>
   <path id="path68" transform="matrix(0.125 0 0 -0.125 -84.3606 35.2361)" fill="#211d1d" d="M1054.36 660.291C1083.22 683.855 1108.86 713.288 1130.78 748.778C1169.27 811.22 1188.8 879.457 1188.8 951.607C1188.73 1007.42 1176.66 1061.87 1152.96 1113.44C1119.35 1188.64 1068.12 1244.45 1000.91 1278.72C943.426 1307.06 858.874 1320.75 741.837 1320.75L0 1320.75L0 1272.93L0.071553 47.8212L0.071553 0L726.596 0C834.26 0 914.471 9.51654 971.689 29.0505C1033.03 50.0155 1083.38 88.5587 1121.45 143.631C1164.45 205.214 1186.28 282.038 1186.28 371.837C1186.35 497.937 1141.91 594.557 1054.36 660.291"/>
   <path id="path70" transform="matrix(0.125 0 0 -0.125 -178.873 123.306)" fill="#211d1d" d="M1202.54 618.838C1164.81 704.677 1095.09 765.378 995.492 799.032C940.611 818.136 861.76 827.534 754.812 827.534L558.352 827.534C477.616 827.534 440.408 836.549 423.355 844.086C403.225 853.007 382.689 868.82 382.689 919.026C382.689 977.843 404.966 991.533 429.055 997.544C441.911 1000.72 479.119 1006.18 581.129 1006.94C580.771 1006.94 660.267 1006.94 660.267 1006.94L708.064 1006.94L708.064 1320.27L521.526 1320.27C446.991 1320.27 392.182 1318.41 353.853 1314.64C231.76 1301.81 141.079 1254.68 84.0747 1174.57C28.2634 1095.36 0 1006.73 0 910.965C0 850.001 12.2356 791.686 36.3728 737.639C60.7723 682.949 95.3562 636.845 139.051 600.568C209.483 542.443 317.242 514.251 468.624 514.251L695.59 514.251C764.615 514.251 797.195 504.591 812.341 496.482C847.592 477.425 863.453 450.211 863.453 408.377C863.453 373.816 850.502 350.729 821.499 333.604C811.22 327.474 775.324 313.307 664.202 313.307L57.4093 313.307L57.4093 0L720.753 0C817.636 0 888.855 4.00697 938.656 12.2833C1049.4 30.8393 1133.49 89.1073 1188.66 185.513C1226.82 251.723 1246.14 327.045 1246.14 409.283C1246.14 483.221 1231.47 553.724 1202.54 618.838"/>
   <path id="path72" transform="matrix(0.125 0 0 -0.125 -172.893 117.328)" fill="#ffffff" fill-rule="evenodd" d="M57.4332 0L57.4332 217.664L616.357 217.664C707.182 217.664 767.716 226.632 798.054 244.592C841.654 270.375 863.453 309.061 863.453 360.555C863.453 419.873 837.981 463.305 787.011 490.877C757.865 506.428 711.475 514.203 647.745 514.203L420.779 514.203C282.3 514.203 182.579 539.366 121.759 589.573C83.5739 621.27 53.7363 661.173 32.1988 709.304C10.7091 757.412 0 808.715 0 863.143C0 949.222 25.0674 1027.88 75.2499 1099.03C124.168 1167.79 202.638 1207.84 310.731 1219.19C347.127 1222.79 401.436 1224.58 473.681 1224.58L612.422 1224.58L612.422 1006.94L532.926 1006.94C450.974 1006.34 396.475 1002.72 369.571 996.16C314.547 982.351 286.999 940.707 286.999 871.205C286.999 812.436 310.039 772.891 356.119 752.522C387.221 738.76 438.667 731.867 510.506 731.867L706.967 731.867C807.523 731.867 882.63 723.21 932.335 705.894C1019.13 676.581 1078.66 625.134 1110.96 551.602C1137.26 492.404 1150.5 429.032 1150.5 361.462C1150.5 287.333 1133.42 220.622 1099.32 161.447C1051.38 77.7304 979.298 27.8102 882.94 11.6631C836.239 3.91156 766.261 1.08462e-12 672.908 1.08462e-12L57.4332 1.08462e-12"/>
   <path id="path74" transform="matrix(0.125 0 0 -0.125 -78.377 29.2584)" fill="#ffffff" fill-rule="evenodd" d="M0.023851 0L0 1225.11L693.968 1225.13C802.419 1225.11 881.556 1212.85 931.309 1188.3C988.814 1158.97 1032.25 1111.41 1061.63 1045.63C1082.57 1000.14 1093.02 952.823 1093.07 903.785C1093.07 840.366 1076.08 781.096 1042.19 726.048C1008.2 671.024 965.392 633.005 913.731 612.112C1031.65 557.612 1090.61 461.588 1090.59 324.016C1090.59 243.876 1071.82 176.831 1034.23 122.976C1001.96 76.2993 960.05 44.172 908.412 26.4746C856.751 8.87257 780.19 0.023851 678.727 1.08462e-12L0.023851 1.08462e-12"/>
   <path id="path76" transform="matrix(0.125 0 0 -0.125 -34.363 -0.996539)" fill="#211d1d" d="M333.961 185.942C312.543 198.774 282.849 204.737 240.489 204.737L0 204.737L0 156.916L0.047702 47.8451L0.047702 4.57507e-05L268.204 4.57507e-05C299.187 -0.0238052 325.184 9.27808 345.243 27.5479C366.303 46.7241 377.466 72.8887 377.466 103.251C377.466 152.623 350.204 176.283 333.961 185.942"/>
   <path id="path78" transform="matrix(0.125 0 0 -0.125 -36.1608 -65.6953)" fill="#211d1d" d="M333.938 185.966C312.519 198.798 282.825 204.761 240.489 204.761L0 204.761L0 0L47.8689 0L240.513 0.023851L268.228 0.023851C306.843 0 331.457 14.9784 345.267 27.5479C366.327 46.7002 377.442 72.8648 377.442 103.275C377.442 152.67 350.204 176.283 333.938 185.966"/>
   <path id="path80" transform="matrix(0.125 0 0 -0.125 -28.3824 -6.97718)" fill="#ec1d27" d="M0 0L192.644 0L220.359 0.023851C239.225 0 254.156 5.05641 265.223 15.0977C276.266 25.1389 281.776 38.5909 281.776 55.4058C281.776 75.1068 275.073 89.0119 261.598 97.0258C248.17 105.064 225.177 109.071 192.644 109.071L0 109.071L0 1.08462e-12"/>
   <path id="path82" transform="matrix(0.125 0 0 -0.125 -30.1772 -71.676)" fill="#ec1d27" d="M0 0L220.359 0C239.225 0 254.18 5.03256 265.223 15.0977C276.266 25.1628 281.752 38.5909 281.752 55.4297C281.752 75.1306 275.073 88.988 261.598 97.0258C248.17 105.064 225.177 109.094 192.644 109.094L0 109.094L0 0"/>
   <path id="path84" transform="matrix(0.125 0 0 -0.125 139.391 -204.07)" fill="#211d1d" d="M0.023851 0.071553L0 0L0.023851 0.047702C0.071553 0.071553 0.071553 0.119255 0.143106 0.119255L0.023851 0.071553"/>
   <path id="path86" transform="matrix(0.125 0 0 -0.125 45.4898 -12.0992)" fill="#211d1d" d="M1493.57 353.162C1488.18 351.54 1476.02 366.184 1471.85 369.118C1433.4 395.783 1296.09 431.894 1244.88 426.384C1147.12 622.845 919.887 587.617 838.126 582.179C825.008 760.679 673.22 849.787 593.438 884.561C594.989 899.015 597.541 923.105 600.141 951.44C604.291 997.734 608.512 1054.98 608.512 1100.44L608.56 1101.39L608.488 1102.3L608.441 1103.04C608.369 1104.73 608.131 1109.31 608.131 1115.61C608.131 1126.86 608.846 1143.77 611.661 1159.25C613.092 1166.96 615.095 1174.3 617.385 1180.24C619.77 1186.18 622.537 1190.57 624.803 1192.93C633.89 1202.5 633.508 1217.66 623.896 1226.7C614.332 1235.81 599.163 1235.41 590.075 1225.85C582.133 1217.38 576.862 1207.69 572.998 1197.89C567.155 1183.08 564.173 1167.55 562.432 1153.12C560.715 1138.69 560.309 1125.43 560.309 1115.61C560.309 1107.64 560.548 1102.23 560.715 1100.15C560.667 1057.58 556.613 1001.19 552.486 955.757C550.411 932.979 548.36 912.896 546.81 898.538C546.547 896.129 546.357 894.126 546.118 892.098C527.681 811.864 554.204 659.551 549.123 606.077C507.408 498.82 520.908 226.632 217.261 70.9567C194.078 177.475 312.712 370.692 211.346 484.199C340.332 709.09 133.019 825.053 115.202 869.082C128.368 889.165 133.043 903.785 134.522 921.697C122.191 927.613 81.1432 951.774 118.017 997.782C71.722 984.068 56.9106 981.73 56.9106 981.73C56.9106 981.73 40.4057 989.267 51.9257 998.188C63.565 1007.06 134.689 1027.76 134.689 1027.76C292.224 1232.09 491.833 1250.15 519.596 1261.74C599.568 1330.22 653.233 1336.06 662.368 1336.56C685.599 1348.75 715.532 1346.27 715.532 1346.27C716.128 1349.15 780.526 1497.1 786.154 1503.11C791.879 1509.1 801.109 1456.01 801.825 1394.59C802.158 1364.82 799.01 1322.3 799.01 1322.3L799.821 1318.29L802.635 1316.19C813.75 1326.64 834.357 1346.36 849.312 1361.53C891.934 1404.75 1000.38 1425.33 995.208 1418.2C990.033 1411 844.208 1286.76 844.208 1286.76L839.891 1288.72L845.472 1284.52C845.472 1284.52 881.463 1274.55 884.802 1264.34C888.308 1254.18 905.696 1237.72 820.094 1169.58C820.094 1169.58 1068.79 1010.38 1161.16 933.79C1212.73 889.451 1349.56 732.368 1418.87 644C1466.81 515.277 1499.01 354.831 1493.57 353.162ZM930.095 1279.75L930.167 1279.61L930.167 1279.46C930.167 1279.56 930.095 1279.63 930.095 1279.7ZM1541.44 366.47C1540.18 378.444 1537.46 393.899 1533.33 414.268C1521.03 474.73 1496.22 573.235 1463.67 660.72L1461.07 667.661L1456.46 673.528C1420.97 718.893 1369.12 780.547 1319.22 837.074C1294.28 865.338 1269.9 892.242 1248.17 915.138C1226.37 938.131 1207.7 956.806 1192.41 970.091L1192.05 970.377L1191.72 970.64C1166.84 991.223 1133.42 1015.93 1096.53 1042C1028.62 1090.11 949.438 1142.51 898.564 1175.76C904.241 1181.77 909.488 1187.64 913.876 1193.26C920.722 1202.21 926.112 1211.01 930.167 1220.55C934.15 1230.02 936.439 1240.54 936.439 1250.67C936.511 1260.57 934.15 1269.47 932.122 1274.95C931.073 1277.72 930.238 1279.7 929.809 1280.65L929.594 1281.13L929.523 1281.25L929.451 1281.2C927.782 1285.5 925.897 1289.07 924.013 1292.08C931.979 1298.95 940.423 1306.2 948.961 1313.52C967.613 1329.6 986.407 1345.84 1001 1358.7C1008.35 1365.16 1014.58 1370.69 1019.46 1375.15C1021.9 1377.37 1023.92 1379.28 1025.81 1381.09L1028.81 1384.1L1030.77 1386.17C1031.56 1387.1 1032.46 1388.13 1034.06 1390.3C1035.95 1393.02 1038.12 1396.48 1040 1401.2C1041.74 1405.82 1043.22 1411.88 1043.22 1418.68C1043.29 1426.72 1040.84 1435.71 1036.92 1442.46C1033.58 1448.47 1029.39 1452.79 1025.76 1455.84C1019.25 1461.14 1014.22 1463.07 1010.45 1464.45C1004.8 1466.36 1001.43 1466.74 998.643 1467.12C995.852 1467.36 993.753 1467.43 991.798 1467.43C985.358 1467.38 980.54 1466.76 974.816 1465.95C955.592 1463 928.831 1456.41 899.685 1445.49C885.303 1440 870.492 1433.44 856.086 1425.41C853.653 1424 851.268 1422.54 848.883 1421.07C847.857 1442.25 846.02 1461.66 843.731 1477.78C842.037 1489.14 840.296 1498.65 837.792 1507.72C836.385 1512.39 835.121 1516.73 831.853 1523.27C830.016 1526.61 827.87 1530.64 822.479 1536.36C819.689 1539.2 815.992 1542.54 810.125 1545.66C804.448 1548.76 796.196 1551.46 787.132 1551.41C779.166 1551.46 771.081 1549.29 764.975 1546.14C758.797 1542.97 754.433 1539.15 751.237 1535.81C749.042 1533.43 747.921 1531.9 747.015 1530.66C745.345 1528.25 744.534 1526.87 743.724 1525.53C742.269 1523 741.148 1520.93 739.884 1518.47C735.376 1509.6 729.413 1496.6 722.281 1481.03C711.739 1457.72 699.194 1429.32 689.152 1406.4C686.982 1401.36 684.955 1396.76 683.07 1392.35C682.069 1392.21 681.186 1392.11 680.137 1391.92C670.978 1390.39 660.674 1387.86 649.703 1383.33C623.753 1379.64 567.989 1363.87 496.603 1304.77C493.813 1304.1 490.283 1303.22 486.276 1302.29C470.582 1298.57 446.898 1293.06 418.587 1283.99C336.182 1257.88 212.753 1200.83 106.735 1069.34C100.033 1067.28 91.6853 1064.66 82.8127 1061.77C72.7238 1058.44 62.1578 1054.86 52.6174 1051.21C47.7756 1049.32 43.2201 1047.51 38.76 1045.41C36.4464 1044.36 34.2044 1043.24 31.7001 1041.86C29.1719 1040.45 26.5244 1038.95 22.9229 1036.23L22.8275 1036.11L22.6844 1036.02C17.6518 1032.1 12.19 1026.9 7.63443 1019.2C3.05504 1011.69 -0.0932936 1001.46 0.0021103 991.652C0.0021103 984.616 1.43317 978.129 3.38895 972.858C6.9666 963.556 11.5937 957.76 15.4814 953.586C21.3964 947.457 26.0712 944.451 29.6727 942.162C33.2265 939.967 35.7786 938.775 37.0665 938.179L50.113 932.24L60.2736 933.814C61.323 930.952 62.5155 928.161 63.8273 925.585C68.526 916.259 74.1071 909.056 79.8075 903.118C78.5434 900.78 77.1839 898.371 75.2043 895.247L61.49 874.329L70.8634 851.122C76.2776 838.267 82.4311 830.992 88.5847 823.479C99.3415 810.91 111.529 799.199 124.528 785.604C143.991 765.426 164.693 741.933 180.053 715.243C195.413 688.483 205.478 659.408 205.55 625.134C205.478 593.079 196.749 555.036 169.869 508.002L152.72 478.093L175.641 452.334C186.612 440.075 193.481 427.195 198.275 412.24C202.926 397.31 205.121 380.232 205.121 361.199C205.264 324.23 196.534 280.559 186.827 236.316C177.31 191.881 166.554 147.304 166.339 102.678C166.339 88.8211 167.46 74.8444 170.537 60.7962L183.75 0L239.084 28.4065C320.154 69.9072 381.522 120.257 427.65 174.064C496.937 254.776 531.235 342.5 551.985 417.965C562.361 455.721 569.468 490.639 575.789 520.19C582.038 549.646 587.833 573.95 593.701 588.714L596.038 594.915L596.706 601.498C597.422 608.558 597.589 615.499 597.589 622.845C597.541 648.914 594.822 680.492 592.27 714.695C589.646 748.73 587.213 784.912 587.213 816.944C587.166 823.074 587.309 828.941 587.5 834.665C611.899 823.169 641.474 806.974 669.976 785.27C699.79 762.755 728.292 734.682 749.996 700.79C771.653 666.754 786.846 627.209 790.471 578.673L793.954 531.305L841.346 534.453C867.629 536.218 902.69 540.249 942.593 540.201C989.484 540.32 1041.62 534.524 1087.18 514.943C1110.03 505.212 1131.4 492.165 1150.69 474.539C1169.96 456.842 1187.38 434.565 1202.12 405.061L1216.93 375.224L1250.06 378.825C1251.44 378.968 1253.82 379.111 1256.76 379.111C1266.82 379.159 1283.3 377.466 1301.62 374.246C1329.15 369.499 1361.37 361.462 1388.82 352.732C1402.51 348.367 1415.1 343.836 1425.03 339.59C1433.33 336.18 1439.77 332.793 1442.84 330.861C1443.32 330.384 1443.89 329.811 1444.66 329.12C1447.38 326.52 1450.95 322.966 1456.39 318.697C1459.18 316.55 1462.47 314.165 1467.51 311.518C1472.61 309.061 1479.6 305.46 1492.67 305.221C1496.99 305.173 1501.87 305.77 1506.91 307.248L1507.19 307.32L1507.55 307.391C1515.71 309.896 1522.51 314.475 1526.97 318.816C1534.79 326.639 1537.1 332.864 1538.84 337.086C1541.09 343.478 1541.37 346.865 1541.71 349.632C1541.99 352.351 1541.99 354.306 1541.99 356.048C1541.99 360.15 1541.71 363.155 1541.44 366.47"/>
   <path id="path88" transform="matrix(0.125 0 0 -0.125 51.4699 -20.9688)" fill="#ec1d27" d="M1371.03 573.044C1301.72 661.412 1164.89 818.494 1113.32 862.833C1020.95 939.419 772.254 1098.62 772.254 1098.62C857.855 1166.77 840.467 1183.22 836.961 1193.38C833.622 1203.59 797.631 1213.56 797.631 1213.56L792.05 1217.76L796.367 1215.8C796.367 1215.8 942.192 1340.04 947.368 1347.25C952.543 1354.38 844.093 1333.79 801.471 1290.58C786.516 1275.41 765.909 1255.68 754.795 1245.24L751.98 1247.33L751.169 1251.34C751.169 1251.34 754.318 1293.87 753.984 1323.63C753.268 1385.05 744.038 1438.14 738.314 1432.16C732.685 1426.15 668.287 1278.2 667.691 1275.31C667.691 1275.31 637.758 1277.79 614.527 1265.6C605.392 1265.1 551.727 1259.26 471.755 1190.78C443.992 1179.19 244.384 1161.14 86.8478 956.806C86.8478 956.806 15.7242 936.103 4.08491 927.231C-7.43512 918.311 9.06976 910.774 9.06976 910.774C9.06976 910.774 23.8812 913.111 70.176 926.825C33.3024 880.817 74.3499 856.656 86.6809 850.741C85.2021 832.829 80.5273 818.208 67.3616 798.126C85.1783 754.097 292.491 638.133 163.505 413.242C264.872 299.735 146.237 106.519 169.42 0C473.067 155.675 459.567 427.863 501.283 535.121C506.363 588.595 479.841 740.907 498.277 821.142C498.516 823.169 498.707 825.173 498.969 827.581C500.519 841.94 502.571 862.022 504.646 884.8C508.772 930.236 512.826 986.62 512.874 1029.19C512.707 1031.27 512.469 1036.68 512.469 1044.65C512.469 1054.48 512.874 1067.74 514.591 1082.17C516.333 1096.6 519.314 1112.12 525.157 1126.94C529.021 1136.74 534.292 1146.42 542.235 1154.89C551.322 1164.45 566.491 1164.86 576.055 1155.75C585.667 1146.71 586.049 1131.54 576.962 1121.97C574.696 1119.61 571.929 1115.22 569.544 1109.29C567.254 1103.35 565.251 1096 563.82 1088.3C561.005 1072.82 560.29 1055.91 560.29 1044.65C560.29 1038.35 560.528 1033.77 560.6 1032.08L560.648 1031.34L560.719 1030.43L560.672 1029.48C560.672 984.02 556.45 926.778 552.3 880.483C549.7 852.148 547.148 828.059 545.598 813.605C625.379 778.83 777.167 689.723 790.285 511.222C872.046 516.66 1099.27 551.888 1197.04 355.427C1248.25 360.937 1385.56 324.827 1424.01 298.161C1428.18 295.227 1440.34 280.583 1445.73 282.205C1451.17 283.874 1418.97 444.32 1371.03 573.044"/>
  </g>
 </g>
</svg>
