<!DOCTYPE svg PUBLIC "-//W3C//DTD SVG 20010904//EN" "http://www.w3.org/TR/2001/REC-SVG-20010904/DTD/svg10.dtd">
<svg version="1.0" xmlns="http://www.w3.org/2000/svg" width="512px" height="512px" viewBox="0 0 5120 5120" preserveAspectRatio="xMidYMid meet">
<g id="layer101" fill="#0c8484" stroke="none">
 <path d="M1185 3691 c-237 -39 -463 -158 -646 -340 -105 -105 -156 -175 -217 -296 -77 -154 -112 -307 -112 -491 0 -437 232 -809 632 -1011 179 -90 329 -127 528 -127 228 -1 408 59 607 201 70 49 176 139 181 154 2 5 -70 9 -177 9 l-181 0 0 180 c0 99 -3 180 -7 180 -4 0 -40 -23 -82 -52 -134 -93 -280 -137 -410 -124 -326 33 -522 230 -538 541 -18 351 204 606 550 631 108 8 207 -13 317 -67 72 -36 97 -56 180 -143 52 -55 306 -313 565 -573 l470 -473 192 0 193 0 0 181 0 180 -591 602 c-324 331 -616 622 -647 645 -108 83 -260 147 -416 177 -95 19 -319 27 -391 16z"/>
 <path d="M3675 3694 c-199 -28 -294 -53 -410 -111 -38 -20 -99 -57 -135 -83 -60 -45 -490 -481 -490 -498 0 -4 82 -90 183 -190 l184 -183 219 219 c125 125 236 228 259 240 85 43 154 56 280 56 102 -1 132 -5 200 -27 260 -86 407 -311 392 -602 -11 -220 -109 -380 -288 -470 -100 -51 -178 -69 -299 -69 -89 0 -116 5 -179 27 -81 29 -143 63 -210 114 -24 18 -48 33 -52 33 -5 0 -9 -81 -9 -180 l0 -180 -181 0 c-107 0 -179 -4 -177 -9 5 -15 111 -105 181 -154 199 -142 379 -202 607 -201 199 0 349 37 528 127 400 202 632 574 632 1011 0 184 -35 337 -112 491 -61 121 -112 191 -217 296 -218 218 -475 335 -751 344 -69 2 -138 2 -155 -1z"/>
 <path d="M2018 2376 l-98 -92 0 -187 0 -187 193 0 192 0 93 93 92 92 -188 187 -187 186 -97 -92z"/>
 </g>
<g id="layer102" fill="#777777" stroke="none">
 <path d="M1157 3685 c-230 -44 -434 -154 -610 -328 -167 -166 -248 -308 -313 -547 -23 -83 -26 -383 -5 -474 104 -458 459 -798 933 -893 116 -23 320 -23 418 0 134 32 352 134 400 187 3 3 23 17 45 32 22 15 62 50 90 78 l49 50 -182 0 -182 0 0 180 c0 99 -3 180 -6 180 -6 0 -65 -39 -74 -50 -6 -6 -35 -23 -105 -61 -271 -149 -668 -33 -793 232 -113 239 -67 545 107 713 116 111 241 158 421 159 101 1 125 -2 193 -26 119 -42 179 -86 337 -251 79 -83 329 -337 554 -563 l411 -413 191 0 191 0 0 183 0 182 -512 520 c-281 286 -540 551 -575 589 -171 181 -367 282 -620 321 -94 14 -288 14 -363 0z"/>
 <path d="M2947 2690 c52 -53 65 -62 75 -51 11 11 10 12 0 6 -10 -5 -34 12 -75 51 l-62 59 62 -65z"/>
 </g>

</svg>